<?xml version="1.0" encoding="UTF-8" ?>
 <svg viewBox="-3.152581767773065 -2.635478034732849  5.725752415619497 4.190332366256264" xmlns="http://www.w3.org/2000/svg" version="1.0" overflow="visible">
  <defs>
   <g id="ID__#42_MODEL_SPACE"/>
   <g id="ID__#42_PAPER_SPACE"/>
  </defs>
  <g id="draft" transform="matrix(1 0 0 -1 0 0)" stroke-width="0.00123951059773447">
   <g id="SHEETMETAL_CUT_LINES" color="rgb(0,0,0)" stroke="currentColor" fill="none" stroke-width="0.00123951059773447"/>
   <g id="SHEETMETAL_BEND_LINES_DOWN" color="rgb(0,0,0)" stroke="currentColor" fill="none" stroke-dasharray="0.45, 0.09, 0.09, 0.09 " stroke-width="0.00123951059773447"/>
   <g id="TANGENT_HIDDEN" color="rgb(0,0,0)" stroke="currentColor" fill="none" visibility="hidden" stroke-dasharray="0.1, 0.05 " stroke-width="0.00123951059773447"/>
   <g id="SECTION_JOG_LINES" color="rgb(0,0,0)" stroke="currentColor" fill="none" visibility="hidden" stroke-width="0.00123951059773447"/>
   <g id="SIDE_THREAD_SYMBOLS" color="rgb(0,0,0)" stroke="currentColor" fill="none" stroke-dasharray="0.1, 0.05 " stroke-width="0.00123951059773447"/>
   <g id="TANGENT_LINES" color="rgb(0,0,0)" stroke="currentColor" fill="none" visibility="hidden" stroke-width="0.00123951059773447"/>
   <g id="SHEETMETAL_BEND_TANGENT_LI" color="rgb(0,0,0)" stroke="currentColor" fill="none" stroke-width="0.00123951059773447"/>
   <g id="SIDE_THREAD_SYMBOLS_HIDDEN" color="rgb(0,0,0)" stroke="currentColor" fill="none" visibility="hidden" stroke-dasharray="0.1, 0.05 " stroke-width="0.00123951059773447"/>
   <g id="BREAK_LINES" color="rgb(0,0,0)" stroke="currentColor" fill="none" visibility="hidden" stroke-width="0.00123951059773447"/>
   <g id="DETAIL_VIEW_BORDER" color="rgb(0,0,0)" stroke="currentColor" fill="none" stroke-width="0.00123951059773447"/>
   <g id="MODELSKETCH_VISIBLE" color="rgb(0,0,0)" stroke="currentColor" fill="none" stroke-width="0.00123951059773447">
    <path d="M -1.4281869814621193 1.1057485129654876 A 0.5509085186432366 0.5509085186432366 0 0  1  -1.1290614423724838 2.002041214661468" id="ID_10000095"/>
    <path d="M -1.97690345267735 1.988623000817317 A 0.5509085186432366 0.5509085186432366 0 0  1  -1.7746495390970871 1.1417388505353703" id="ID_10000098"/>
    <circle cx="-1.835497316178375" cy="1.76785308427698" r="0.083347115831643" id="ID_100000AD"/>
    <circle cx="-1.358401147634026" cy="1.803961267152171" r="0.0921431133178353" id="ID_100000B6"/>
    <line x1="-2.261890045582683" y1="0.627874286742661" x2="-2.050312443396913" y2="0.8580284754679262" id="ID_1000004D"/>
    <line x1="-2.319782385736009" y1="1.105748512965487" x2="-2.971953715012444" y2="0.255040358752012" id="ID_10000050"/>
    <line x1="-1.838734841211143" y1="0.8580284754679264" x2="-2.261890045582683" y2="0.627874286742661" id="ID_10000053"/>
    <line x1="0.3387953871531418" y1="0.7112347176410455" x2="0.0000000000000001" y2="0.6048166993058962" id="ID_10000056"/>
    <line x1="-1.695435426770899" y1="0.4800938541584184" x2="-1.838734841211143" y2="0.8580284754679264" id="ID_10000059"/>
    <line x1="0.1639311402480785" y1="0.4831375381965289" x2="0.3387953871531421" y2="0.7112347176410455" id="ID_1000005C"/>
    <line x1="-1.428186981462118" y1="0.8580284754679263" x2="-1.695435426770899" y2="0.4800938541584184" id="ID_1000005F"/>
    <line x1="-2.694309168443905" y1="0.0000000000000003" x2="-2.833237219848576" y2="0.0000000000000003" id="ID_10000062"/>
    <line x1="-1.695435426770899" y1="0.4800938541584184" x2="-1.538661785247758" y2="-0.8408341732785458" id="ID_1000006B"/>
    <line x1="2.573170647846432" y1="-1.554854331523415" x2="2.573170647846432" y2="2.635478034732849" id="ID_10000080"/>
    <line x1="-1.428186981462118" y1="1.105748512965488" x2="-0.9173230363393393" y2="1.105748512965488" id="ID_10000083"/>
    <line x1="-3.152581767773065" y1="-1.554854331523415" x2="-3.152581767773065" y2="2.635478034732849" id="ID_10000086"/>
    <line x1="-0.9173230363393393" y1="1.105748512965488" x2="-1.127968256281117" y2="0.9428061486229178" id="ID_10000089"/>
    <line x1="2.573170647846432" y1="2.635478034732849" x2="-3.152581767773065" y2="2.635478034732849" id="ID_1000008C"/>
    <line x1="2.573170647846432" y1="-1.554854331523415" x2="-3.152581767773065" y2="-1.554854331523415" id="ID_10000092"/>
    <line x1="-2.694309168443905" y1="-0.2560976115385376" x2="-2.833237219848576" y2="0.0000000000000005" id="ID_1000009E"/>
    <line x1="-2.971953715012442" y1="-0.3311338746115784" x2="-2.971953715012442" y2="0.2550403587520085" id="ID_100000A1"/>
    <line x1="-2.833237219848576" y1="-0.0000000000000003" x2="-2.971953715012444" y2="-0.3311338746115804" id="ID_100000A4"/>
    <line x1="-2.971953715012444" y1="0.2550403587520128" x2="-2.833237219848576" y2="0.0000000000000003" id="ID_100000A7"/>
    <line x1="-2.050312443396913" y1="0.8580284754679262" x2="-2.319782385736009" y2="1.105748512965488" id="ID_100000AA"/>
    <line x1="-1.127968256281117" y1="0.9428061486229183" x2="-1.127968256281117" y2="0.627874286742661" id="ID_100000B0"/>
    <line x1="-2.319782385736009" y1="1.105748512965488" x2="-1.774649539097088" y2="1.14173885053537" id="ID_100000B3"/>
    <line x1="0.1639311402480784" y1="0.2550403587520121" x2="0.3387953871531421" y2="0.4831375381965289" id="ID_100000B9"/>
    <line x1="-1.127968256281117" y1="0.9428061486229183" x2="0.0000000000000002" y2="0.6048166993058962" id="ID_100000BC"/>
    <line x1="0.0000000000000001" y1="0.6048166993058962" x2="0" y2="0.2550403587520123" id="ID_100000BF"/>
    <line x1="0" y1="0.2550403587520123" x2="0.1639311402480784" y2="0" id="ID_100000C2"/>
    <line x1="0.1639311402480784" y1="0" x2="0.1639311402480784" y2="0.2550403587520123" id="ID_100000C5"/>
    <line x1="-1.127968256281119" y1="0.627874286742661" x2="-1.428186981462119" y2="0.8580284754679256" id="ID_100000C8"/>
    <line x1="0.3387953871531418" y1="0.483137538196529" x2="0.1639311402480784" y2="0.483137538196529" id="ID_100000CB"/>
    <path d="M -2.694309168443906 -0.0000000000000004 L -2.665961692611893 -0.0231999832214441 L -2.638575148164015 -0.046862923554027 L -2.612149535100274 -0.07098882099774911 L -2.5866848534206683 -0.09557767555261043 L -2.5621811031251993 -0.12062948721861096 L -2.538638284213866 -0.14614425599575065 L -2.5160563966866687 -0.1721219818840296 L -2.4944354405436076 -0.19856266488344773 L -2.4737754157846825 -0.22546630499400513 L -2.454076322409893 -0.2528329022157016 L -2.435338160419241 -0.28066245654853744 L -2.4175609298127236 -0.30895496799251243 L -2.4007446305903426 -0.3377104365476266 L -2.3848892627520977 -0.36692886221387994 L -2.3699948262979884 -0.3966102449912725 L -2.356061321228016 -0.42675458487980433 L -2.343088747542179 -0.45736188187947535 L -2.331077105240479 -0.48843213599028557 L -2.3200263943229142 -0.519965347212235 L -2.3099366147894855 -0.5519615155453236 L -2.300807766640193 -0.5844206409895514 L -2.2926398498750364 -0.6173427235449184 L -2.2854328644940165 -0.6507277632114248 L -2.2791868104971322 -0.6845757599890702 L -2.2739016878843836 -0.7188867138778547 L -2.2695774966557716 -0.7536606248777786 L -2.266214236811295 -0.7888974929888417 L -2.2638119083509554 -0.8245973182110439 L -2.262370511274751 -0.8607601005443855 L -2.261890045582683 -0.8973858399888661 " id="ID_10000065"/>
    <path d="M 0 0.2550403587520113 L -0.043201423555690795 0.23737290863123614 L -0.08510432335648326 0.2183759394358454 L -0.1257086994023774 0.19804945116583916 L -0.16501455169337317 0.17639344382121738 L -0.20302188022947062 0.15340791740198007 L -0.23973068501066971 0.12909287190812718 L -0.2751409660369705 0.10344830733965885 L -0.30925272330837295 0.0764742236965749 L -0.34206595682487717 0.048170620978875416 L -0.37358066658648287 0.01853749918656047 L -0.4037968525931905 -0.01242514168037007 L -0.43271451484499956 -0.044717301621916075 L -0.46033365334191034 -0.0783389806380777 L -0.4866542680839228 -0.11329017872885476 L -0.5116763590710369 -0.14957089589424744 L -0.5353999263032528 -0.18718113213425566 L -0.5578249697805703 -0.22612088744887932 L -0.5789514895029895 -0.26639016183811864 L -0.5987794854705102 -0.3079889553019734 L -0.6173089576831328 -0.3509172678404437 L -0.6345399061408569 -0.3951750994535295 L -0.6504723308436826 -0.4407624501412309 L -0.6651062317916101 -0.4876793199035478 L -0.6784416089846393 -0.5359257087404802 L -0.6904784624227702 -0.5855016166520282 L -0.7012167921060026 -0.6364070436381917 L -0.7106565980343367 -0.6886419896989707 L -0.7187978802077726 -0.7422064548343653 L -0.72564063862631 -0.7971004390443753 L -0.7311848732899493 -0.853323942329001 " id="ID_10000068"/>
    <path d="M -1.976903452677351 1.988623000817317 L -1.9519516069918166 2.001716096198695 L -1.926771516157457 2.0139370659534124 L -1.9013631801742725 2.0252859100814695 L -1.8757265990422631 2.0357626285828667 L -1.849861772761429 2.0453672214576035 L -1.8237687013317696 2.05409968870568 L -1.7974473847532861 2.061960030327097 L -1.7708978230259769 2.068948246321853 L -1.7441200161498434 2.0750643366899495 L -1.7171139641248843 2.080308301431385 L -1.6898796669511011 2.0846801405461615 L -1.662417124628493 2.088179854034277 L -1.6347263371570593 2.0908074418957323 L -1.6068073045368012 2.092562904130528 L -1.5786600267677178 2.0934462407386625 L -1.55028450384981 2.0934574517201376 L -1.521680735783077 2.0925965370749524 L -1.4928487225675195 2.090863496803107 L -1.463788464203137 2.0882583309046012 L -1.4344999606899291 2.0847810393794357 L -1.4049832120278967 2.08043162222761 L -1.3752382182170395 2.0752100794491235 L -1.3452649792573572 2.0691164110439777 L -1.3150634951488502 2.0621506170121706 L -1.2846337658915181 2.054312697353704 L -1.2539757914853613 2.045602652068577 L -1.2230895719303796 2.03602048115679 L -1.191975107226573 2.025566184618343 L -1.1606323973739414 2.0142397624532355 L -1.1290614423724852 2.002041214661468 " id="ID_1000006E"/>
    <path d="M -1.129061442372485 2.002041214661468 L -1.1206137713024535 2.0148569433215964 L -1.112748698237252 2.0274212757356804 L -1.1054662231768801 2.039734211903721 L -1.098766346121338 2.0517957518257175 L -1.0926490670706257 2.063605895501671 L -1.087114386024743 2.0751646429315795 L -1.0821623029836902 2.0864719941154455 L -1.077792817947467 2.0975279490532674 L -1.0740059309160737 2.108332507745046 L -1.0708016418895097 2.1188856701907794 L -1.068179950867776 2.129187436390471 L -1.066140857850872 2.1392378063441173 L -1.0646843628387976 2.1490367800517207 L -1.063810465831553 2.1585843575132806 L -1.063519166829138 2.167880538728795 L -1.063810465831553 2.176925323698268 L -1.0646843628387974 2.185718712421696 L -1.066140857850872 2.1942607048990808 L -1.068179950867776 2.202551301130421 L -1.0708016418895099 2.2105905011157185 L -1.0740059309160737 2.218378304854972 L -1.077792817947467 2.2259147123481817 L -1.08216230298369 2.2331997235953476 L -1.087114386024743 2.240233338596469 L -1.0926490670706255 2.247015557351548 L -1.098766346121338 2.2535463798605826 L -1.10546622317688 2.2598258061235734 L -1.1127486982372519 2.2658538361405207 L -1.1206137713024533 2.271630469911424 L -1.129061442372485 2.277155707436284 " id="ID_10000071"/>
    <path d="M -1.976903452677351 1.988623000817317 L -1.9771273982124968 2.002021778968445 L -1.9777992348179338 2.0151597970324113 L -1.9789189624936625 2.0280370550092175 L -1.9804865812396824 2.0406535528988634 L -1.9825020910559936 2.0530092907013486 L -1.984965491942596 2.0651042684166723 L -1.9878767838994904 2.0769384860448366 L -1.9912359669266755 2.0885119435858397 L -1.9950430410241529 2.099824641039683 L -1.9992980061919208 2.1108765784063643 L -2.0040008624299808 2.1216677556858863 L -2.009151609738332 2.1321981728782475 L -2.0147502481169743 2.1424678299834476 L -2.0207967775659084 2.152476727001488 L -2.027291198085133 2.1622248639323667 L -2.03423350967465 2.171712240776085 L -2.041623712334458 2.1809388575326434 L -2.0494618060645573 2.189904714202041 L -2.0577477908649486 2.1986098107842773 L -2.0664816667356307 2.207054147279354 L -2.0756634336766044 2.2152377236872693 L -2.0852930916878694 2.2231605400080245 L -2.095370640769426 2.2308225962416195 L -2.1058960809212737 2.238223892388053 L -2.116869412143413 2.245364428447326 L -2.1282906344358437 2.252244204419439 L -2.1401597477985654 2.258863220304391 L -2.1524767522315793 2.2652214761021825 L -2.1652416477348835 2.2713189718128133 L -2.17845443430848 2.277155707436284 " id="ID_10000074"/>
    <path d="M -2.17845443430848 2.277155707436284 L -2.157167833819908 2.3004465499340396 L -2.136029465943656 2.32213112743195 L -2.1150393306797235 2.342209439930015 L -2.094197428028111 2.3606814874282347 L -2.073503757988819 2.37754726992661 L -2.0529583205618462 2.3928067874251386 L -2.0325611157471943 2.4064600399238234 L -2.012312143544862 2.4185070274226623 L -1.99221140395485 2.4289477499216563 L -1.9722588969771575 2.437782207420804 L -1.9524546226117856 2.445010399920108 L -1.9327985808587336 2.4506323274195667 L -1.9132907717180012 2.4546479899191795 L -1.8939311951895892 2.4570573874189474 L -1.8747198512734968 2.45786051991887 L -1.855656739969725 2.4570573874189474 L -1.836741861278273 2.4546479899191795 L -1.817975215199141 2.4506323274195667 L -1.799356801732329 2.445010399920108 L -1.780886620877837 2.4377822074208044 L -1.7625646726356647 2.4289477499216563 L -1.744390957005813 2.4185070274226623 L -1.7263654739882812 2.4064600399238234 L -1.708488223583069 2.3928067874251386 L -1.6907592057901772 2.37754726992661 L -1.6731784206096054 2.3606814874282347 L -1.6557458680413535 2.342209439930015 L -1.6384615480854217 2.3221311274319496 L -1.6213254607418097 2.300446549934039 L -1.604337606010518 2.277155707436284 " id="ID_10000077"/>
    <path d="M -1.604337606010518 2.277155707436284 L -1.5728511651348132 2.3004465499340396 L -1.5417619976594361 2.32213112743195 L -1.5110701035843872 2.342209439930015 L -1.4807754829096664 2.3606814874282347 L -1.4508781356352733 2.37754726992661 L -1.4213780617612082 2.3928067874251386 L -1.3922752612874711 2.4064600399238234 L -1.3635697342140618 2.4185070274226623 L -1.335261480540981 2.4289477499216563 L -1.3073505002682275 2.437782207420804 L -1.2798367933958026 2.445010399920108 L -1.2527203599237056 2.4506323274195667 L -1.226001199851936 2.4546479899191795 L -1.1996793131804948 2.4570573874189474 L -1.173754699909381 2.45786051991887 L -1.148227360038596 2.4570573874189474 L -1.1230972935681387 2.4546479899191795 L -1.0983645004980092 2.4506323274195667 L -1.0740289808282077 2.445010399920108 L -1.0500907345587343 2.4377822074208044 L -1.026549761689589 2.4289477499216563 L -1.0034060622207712 2.4185070274226623 L -0.9806596361522817 2.4064600399238234 L -0.95831048348412 2.3928067874251386 L -0.9363586042162864 2.37754726992661 L -0.9148039983487806 2.3606814874282347 L -0.8936466658816029 2.342209439930015 L -0.8728866068147532 2.3221311274319496 L -0.8525238211482313 2.300446549934039 L -0.8325583088820375 2.277155707436284 " id="ID_1000007A"/>
    <path d="M -0.8325583088820375 2.277155707436284 L -0.8435480654519355 2.280199801841016 L -0.8544615241744623 2.283033958700594 L -0.8652986850496177 2.2856581780150185 L -0.8760595480774019 2.2880724597842885 L -0.8867441132578149 2.290276804008405 L -0.8973523805908564 2.292271210687367 L -0.907884350076527 2.2940556798211755 L -0.9183400217148263 2.29563021140983 L -0.9287193955057543 2.296994805453331 L -0.9390224714493111 2.298149461951677 L -0.9492492495454967 2.2990941809048704 L -0.9593997297943109 2.299828962312909 L -0.9694739121957537 2.3003538061757935 L -0.9794717967498258 2.3006687124935246 L -0.989393383456526 2.300773681266101 L -0.9992386723158555 2.3006687124935246 L -1.0090076633278136 2.3003538061757935 L -1.0187003564924004 2.2998289623129087 L -1.028316751809616 2.29909418090487 L -1.0378568492794602 2.2981494619516774 L -1.0473206489019333 2.2969948054533305 L -1.0567081506770353 2.29563021140983 L -1.0660193546047658 2.2940556798211755 L -1.075254260685125 2.292271210687367 L -1.0844128689181132 2.2902768040084047 L -1.09349517930373 2.2880724597842885 L -1.1025011918419756 2.2856581780150185 L -1.11143090653285 2.283033958700594 L -1.1202843233763529 2.2801998018410155 L -1.129061442372485 2.277155707436284 " id="ID_1000007D"/>
    <path d="M -1.774649539097088 1.430083066225052 L -1.763296523314762 1.4200728958633944 L -1.7519300084883775 1.4106840912125558 L -1.7405499946179357 1.4019166522725361 L -1.7291564817034355 1.393770579043336 L -1.7177494697448779 1.386245871524955 L -1.7063289587422619 1.3793425297173927 L -1.6948949486955884 1.3730605536206502 L -1.6834474396048567 1.3673999432347266 L -1.6719864314700676 1.3623606985596222 L -1.6605119242912199 1.3579428195953367 L -1.649023918068315 1.354146306341871 L -1.6375224128013524 1.3509711587992244 L -1.6260074084903309 1.3484173769673962 L -1.6144789051352524 1.3464849608463878 L -1.6029369027361153 1.3451739104361982 L -1.5913814012929208 1.3444842257368281 L -1.5798124008056682 1.344415906748277 L -1.568229901274358 1.3449689534705453 L -1.5566339026989895 1.3461433659036326 L -1.5450244050795636 1.3479391440475392 L -1.5334014084160794 1.3503562879022648 L -1.5217649127085378 1.3533947974678098 L -1.5101149179569378 1.357054672744174 L -1.49845142416128 1.361335913731357 L -1.4867744313215643 1.3662385204293594 L -1.4750839394377908 1.3717624928381809 L -1.4633799485099594 1.3779078309578217 L -1.4516624585380704 1.3846745347882818 L -1.439931469522123 1.3920626043295605 L -1.4281869814621182 1.400072039581659 " id="ID_1000008F"/>
    <path d="M -2.261890045582683 -0.8973858399888662 L -2.2135812186141073 -0.8936924415812457 L -2.165085172419703 -0.890152468586427 L -2.1164019069994695 -0.88676592100441 L -2.0675314223534076 -0.8835327988351948 L -2.0184737184815167 -0.8804531020787811 L -1.9692287953837975 -0.877526830735169 L -1.9197966530602502 -0.8747539848043591 L -1.8701772915108736 -0.8721345642863505 L -1.8203707107356684 -0.8696685691811439 L -1.7703769107346345 -0.8673559994887388 L -1.7201958915077729 -0.8651968552091358 L -1.669827653055082 -0.8631911363423342 L -1.619272195376562 -0.8613388428883343 L -1.5685295184722143 -0.8596399748471363 L -1.5175996223420372 -0.8580945322187398 L -1.4664825069860317 -0.8567025150031452 L -1.4151781724041974 -0.8554639232003522 L -1.3636866185965348 -0.8543787568103611 L -1.3120078455630435 -0.8534470158331717 L -1.2601418533037236 -0.8526687002687838 L -1.2080886418185752 -0.8520438101171979 L -1.1558482111075978 -0.8515723453784136 L -1.1034205611707921 -0.851254306052431 L -1.0508056920081574 -0.8510896921392501 L -0.9980036036196945 -0.851078503638871 L -0.9450142960054027 -0.8512207405512936 L -0.8918377691652823 -0.8515164028765179 L -0.8384740230993333 -0.851965490614544 L -0.7849230578075557 -0.8525680037653717 L -0.7311848732899495 -0.8533239423290012 " id="ID_1000009B"/>
   </g>
   <g id="SURFACE_THREAD_SYMBOLS" color="rgb(0,0,0)" stroke="currentColor" fill="none" stroke-dasharray="0.1, 0.05 " stroke-width="0.00123951059773447"/>
   <g id="EXPLODE_LINES" color="rgb(0,0,0)" stroke="currentColor" fill="none" stroke-width="0.00123951059773447"/>
   <g id="TABLES" color="rgb(0,0,0)" stroke="currentColor" fill="none" stroke-width="0.00123951059773447"/>
   <g id="DETAIL_VIEW_PARENT_BORDER" color="rgb(0,0,0)" stroke="currentColor" fill="none" stroke-dasharray="0.25, 0.05, 0.05, 0.05, 0.05, 0.05 " stroke-width="0.00123951059773447"/>
   <g id="ID_0" color="rgb(0,0,0)" stroke="currentColor" fill="none" stroke-width="0.00123951059773447"/>
   <g id="HIDDEN_BASE_VIEW" color="rgb(0,0,0)" stroke="currentColor" fill="none" stroke-width="0.00123951059773447"/>
   <g id="VIEW_HATCHES" color="rgb(0,0,0)" stroke="currentColor" fill="none" visibility="hidden" stroke-width="0.00123951059773447"/>
   <g id="INVISIBLE_LINES" color="rgb(0,0,0)" stroke="currentColor" fill="none" visibility="hidden" stroke-width="0.00123951059773447"/>
   <g id="CENTERLINES" color="rgb(0,0,0)" stroke="currentColor" fill="none" visibility="hidden" stroke-dasharray="0.45, 0.09, 0.09, 0.09 " stroke-width="0.00123951059773447"/>
   <g id="VIRTUAL_SHARPS" color="rgb(0,0,0)" stroke="currentColor" fill="none" visibility="hidden" stroke-width="0.00123951059773447"/>
   <g id="CENTERMARKS" color="rgb(0,0,0)" stroke="currentColor" fill="none" visibility="hidden" stroke-width="0.00123951059773447"/>
   <g id="SECTION_CUTTING_LINE" color="rgb(0,0,0)" stroke="currentColor" fill="none" stroke-dasharray="0.25, 0.05, 0.05, 0.05, 0.05, 0.05 " stroke-width="0.00123951059773447"/>
   <g id="SURFACE_THREAD_SYMBOLS_HID" color="rgb(0,0,0)" stroke="currentColor" fill="none" visibility="hidden" stroke-dasharray="0.1, 0.05 " stroke-width="0.00123951059773447"/>
   <g id="IMAGES" color="rgb(0,0,0)" stroke="currentColor" fill="none" visibility="hidden" stroke-width="0.00123951059773447"/>
   <g id="BLIND_THREAD_SYMBOLS" color="rgb(0,0,0)" stroke="currentColor" fill="none" stroke-width="0.00123951059773447"/>
   <g id="ANNOTATION_LINES" color="rgb(0,0,0)" stroke="currentColor" fill="none" visibility="hidden" stroke-width="0.00123951059773447"/>
   <g id="SKETCHED_GEOMETRY" color="rgb(0,0,0)" stroke="currentColor" fill="none" visibility="hidden" stroke-width="0.00123951059773447"/>
   <g id="HIDDEN" color="rgb(0,0,0)" stroke="currentColor" fill="none" visibility="hidden" stroke-dasharray="0.1, 0.05 " stroke-width="0.00123951059773447"/>
   <g id="BLIND_THREAD_SYMBOLS_HIDDE" color="rgb(0,0,0)" stroke="currentColor" fill="none" visibility="hidden" stroke-dasharray="0.1, 0.05 " stroke-width="0.00123951059773447"/>
   <g id="SHEETMETAL_BEND_LINES_UP" color="rgb(0,0,0)" stroke="currentColor" fill="none" stroke-dasharray="0.45, 0.09, 0.09, 0.09 " stroke-width="0.00123951059773447"/>
   <g id="TEXT" color="rgb(0,0,0)" stroke="currentColor" fill="none" stroke-width="0.00123951059773447"/>
   <g id="ANNOTATION_TEXT" color="rgb(0,0,0)" stroke="currentColor" fill="none" visibility="hidden" stroke-width="0.00123951059773447"/>
   <g id="MODELSKETCH_CONSTRUCTION" color="rgb(0,0,0)" stroke="currentColor" fill="none" visibility="hidden" stroke-dasharray="0.45, 0.09, 0.09, 0.09 " stroke-width="0.00123951059773447"/>
   <g id="SURFACE_THREAD_SYMBOLS_ON_" color="rgb(0,0,0)" stroke="currentColor" fill="none" stroke-dasharray="0.1, 0.05 " stroke-width="0.00123951059773447"/>
   <g id="VISIBLE" color="rgb(0,0,0)" stroke="currentColor" fill="none" stroke-width="0.00123951059773447"/>
  </g>
 </svg>